<svg version="1.1" viewBox="0.0 0.0 607.9816272965879 154.6745406824147" fill="none" stroke="none" stroke-linecap="square" stroke-miterlimit="10" xmlns:xlink="http://www.w3.org/1999/xlink" xmlns="http://www.w3.org/2000/svg"><clipPath id="p.0"><path d="m0 0l607.9816 0l0 154.67455l-607.9816 0l0 -154.67455z" clip-rule="nonzero"/></clipPath><g clip-path="url(#p.0)"><path fill="#000000" fill-opacity="0.0" d="m0 0l607.9816 0l0 154.67455l-607.9816 0z" fill-rule="evenodd"/><path fill="#000000" fill-opacity="0.0" d="m2.9658792 3.335958l609.8268 0l0 153.51181l-609.8268 0z" fill-rule="evenodd"/><path fill="#a64d79" d="m20.075254 39.37283l31.656248 0q9.40625 0 14.015629 0.78125q4.625 0.78125 8.265625 3.265625q3.65625 2.484375 6.078125 6.625q2.4375 4.125 2.4375 9.265625q0 5.562504 -3.0 10.218754q-3.0 4.640625 -8.125 6.953125q7.234375 2.109375 11.125 7.1875q3.890625 5.078125 3.890625 11.9375q0 5.40625 -2.515625 10.515625q-2.5 5.109375 -6.859375 8.15625q-4.34375 3.046875 -10.71875 3.75q-4.000004 0.4375 -19.296879 0.546875l-26.953123 0l0 -79.203125zm15.984373 13.171875l0 18.328129l10.484375 0q9.34375 0 11.625 -0.28125q4.09375 -0.484375 6.437504 -2.828125q2.359375 -2.359375 2.359375 -6.187504q0 -3.671875 -2.03125 -5.96875q-2.0156288 -2.296875 -6.015629 -2.78125q-2.375 -0.28125 -13.671875 -0.28125l-9.1875 0zm0 31.500004l0 21.1875l14.8125 0q8.640625 0 10.96875 -0.484375q3.5625038 -0.65625 5.796879 -3.15625q2.25 -2.515625 2.25 -6.734375q0 -3.5625 -1.734375 -6.046875q-1.71875 -2.484375 -5.000004 -3.625q-3.265625 -1.140625 -14.171875 -1.140625l-12.921875 0zm60.631153 -4.59375q0 -12.09375 3.609375 -20.312504q2.703125 -6.046875 7.375 -10.859375q4.6875 -4.8125 10.25 -7.125q7.40625 -3.140625 17.0625 -3.140625q17.515625 0 28.015625 10.859375q10.515625 10.859375 10.515625 30.203129q0 19.1875 -10.4375 30.015625q-10.421875 10.828125 -27.875 10.828125q-17.65625 0 -28.09375 -10.765625q-10.421875 -10.78125 -10.421875 -29.703125zm16.46875 -0.53125q0 13.453125 6.21875 20.40625q6.21875 6.9375 15.78125 6.9375q9.5625 0 15.6875 -6.890625q6.140625 -6.890625 6.140625 -20.671875q0 -13.609375 -5.96875 -20.312504q-5.96875 -6.703125 -15.859375 -6.703125q-9.890625 0 -15.953125 6.78125q-6.046875 6.781254 -6.046875 20.453129zm69.603226 0.53125q0 -12.09375 3.609375 -20.312504q2.703125 -6.046875 7.375 -10.859375q4.6875 -4.8125 10.25 -7.125q7.40625 -3.140625 17.0625 -3.140625q17.515625 0 28.015625 10.859375q10.515625 10.859375 10.515625 30.203129q0 19.1875 -10.4375 30.015625q-10.421875 10.828125 -27.875 10.828125q-17.65625 0 -28.09375 -10.765625q-10.421875 -10.78125 -10.421875 -29.703125zm16.46875 -0.53125q0 13.453125 6.21875 20.40625q6.21875 6.9375 15.78125 6.9375q9.5625 0 15.6875 -6.890625q6.140625 -6.890625 6.140625 -20.671875q0 -13.609375 -5.96875 -20.312504q-5.96875 -6.703125 -15.859375 -6.703125q-9.890625 0 -15.953125 6.78125q-6.046875 6.781254 -6.046875 20.453129zm73.275085 39.65625l0 -78.5625l15.984375 0l0 65.21875l39.78125 0l0 13.34375l-55.765625 0zm67.26514 0l0 -79.203125l54.296875 0l0 13.390625l-38.296875 0l0 18.750004l33.0625 0l0 13.40625l-33.0625 0l0 33.65625l-16.0 0zm67.92139 0l0 -78.5625l15.984375 0l0 65.21875l39.78125 0l0 13.34375l-55.765625 0zm66.67139 0l0 -79.203125l16.0 0l0 79.203125l-16.0 0zm23.181335 0l27.0625 -41.328125l-24.515625 -37.875004l18.6875 0l15.890625 25.437504l15.5625 -25.437504l18.53125 0l-24.640625 38.468754l27.0625 40.734375l-19.28125 0l-17.5625 -27.390625l-17.609375 27.390625l-19.1875 0z" fill-rule="nonzero"/></g></svg>